{"accessors" : [{"bufferView" : 0, "byteOffset" : 0, "componentType" : 5123, "count" : 3504, "type" : "SCALAR", "max" : [3503], "min" : [0]}, {"bufferView" : 1, "byteOffset" : 0, "componentType" : 5126, "count" : 3504, "type" : "VEC3", "max" : [4.698887825012207, 31.711265563964844, 1.1130659580230713], "min" : [-4.698915958404541, -5.130825996398926, -1.1130659580230713]}, {"bufferView" : 1, "byteOffset" : 12, "componentType" : 5126, "count" : 3504, "type" : "VEC3", "max" : [0.9999741315841675, 1.0000044107437134, 0.9999096393585205], "min" : [-1.0000040531158447, -1.0000044107437134, -0.9999070167541504]}, {"bufferView" : 1, "byteOffset" : 24, "componentType" : 5126, "count" : 3504, "type" : "VEC2", "max" : [0.9818379878997803, 0.9772999882698059], "min" : [0.0266759991645813, 0.020235002040863037]}], "asset" : {"generator" : "Aspose.3D 20.11", "version" : "2.0"}, "buffers" : [{"uri" : "buffer.bin", "byteLength" : 119144}], "bufferViews" : [{"buffer" : 0, "byteOffset" : 0, "byteLength" : 7008, "target" : 34963}, {"buffer" : 0, "byteOffset" : 7012, "byteLength" : 112128, "byteStride" : 32, "target" : 34962}], "materials" : [{"pbrMetallicRoughness" : {"baseColorFactor" : [0.800000011920929, 0.800000011920929, 0.800000011920929, 1], "metallicFactor" : 0, "roughnessFactor" : 0.5}, "emissiveFactor" : [0, 0, 0], "alphaMode" : "OPAQUE", "doubleSided" : true}], "meshes" : [{"primitives" : [{"attributes" : {"POSITION" : 1, "NORMAL" : 2, "TEXCOORD_0" : 3}, "indices" : 0, "material" : 0, "mode" : 4}]}], "nodes" : [{"matrix" : [1, 0, 0, 0, 0, -1.3435885648505064E-07, 0.9999999657714511, 0, 0, -0.9999999657714511, -1.3435885648505064E-07, 0, 0, 0, 0, 1], "mesh" : 0, "name" : "GS_LP_model"}], "scene" : 0, "scenes" : [{"nodes" : [0]}]}